<svg height="24px" width="24px" viewBox="0 0 201 201" fill="none" xmlns="http://www.w3.org/2000/svg">
<path d="M0 0H201V201H0V0Z" fill="#0B1215"/>
<path d="M128.406 151.359V133.312C128.406 130.062 127.891 128.062 126.859 127.312C126.453 127.062 126 126.891 125.5 126.797C125.031 126.672 124.297 126.578 123.297 126.516V125.438H135.812V126.516C134.812 126.578 134.062 126.688 133.562 126.844C133.094 127 132.688 127.203 132.344 127.453C131.281 128.141 130.75 130.094 130.75 133.312V161.484H129.859L106.188 132.047V153C106.188 154.375 106.25 155.5 106.375 156.375C106.531 157.219 106.797 157.891 107.172 158.391C107.547 158.891 108.062 159.25 108.719 159.469C109.375 159.688 110.219 159.828 111.25 159.891V160.875H98.6875V159.891C99.7812 159.797 100.656 159.656 101.312 159.469C102 159.25 102.516 158.891 102.859 158.391C103.234 157.891 103.484 157.219 103.609 156.375C103.734 155.5 103.797 154.375 103.797 153V129.469C103.266 128.844 102.812 128.344 102.438 127.969C102.062 127.562 101.688 127.266 101.312 127.078C100.938 126.859 100.547 126.719 100.141 126.656C99.7344 126.562 99.25 126.516 98.6875 126.516V125.438H107.828L128.406 151.359Z" fill="#EDF3FC" stroke-width="0" stroke="#EDF3FC"/>
<path fill-rule="evenodd" clip-rule="evenodd" d="M40 125.438C44.6562 125.438 48.1562 126.203 50.5 127.734C52.8438 129.266 54.0156 131.531 54.0156 134.531C54.0156 135.625 53.8281 136.656 53.4531 137.625C53.0781 138.562 52.5469 139.328 51.8594 139.922C51.5156 140.203 51.1875 140.453 50.875 140.672C50.5625 140.891 50.2031 141.094 49.7969 141.281C49.4219 141.438 48.9688 141.594 48.4375 141.75C47.9375 141.906 47.3438 142.078 46.6562 142.266C47.5312 142.453 48.2812 142.641 48.9062 142.828C49.5625 143.016 50.1406 143.234 50.6406 143.484C51.1406 143.703 51.5938 143.953 52 144.234C52.4062 144.516 52.8125 144.844 53.2188 145.219C54.9688 146.781 55.8438 148.797 55.8438 151.266C55.8438 152.766 55.5469 154.109 54.9531 155.297C54.3594 156.484 53.5 157.5 52.375 158.344C51.25 159.156 49.8906 159.781 48.2969 160.219C46.7031 160.656 44.9062 160.875 42.9062 160.875H25V159.891C26.0938 159.859 26.9688 159.781 27.625 159.656C28.3125 159.5 28.8438 159.25 29.2188 158.906C29.5938 158.562 29.8438 158.094 29.9688 157.5C30.0938 156.875 30.1562 156.078 30.1562 155.109V131.297C30.1562 130.297 30.0938 129.5 29.9688 128.906C29.875 128.312 29.6406 127.844 29.2656 127.5C28.8906 127.156 28.3594 126.922 27.6719 126.797C27.0156 126.672 26.125 126.578 25 126.516V125.438H40ZM35.5469 156.703C35.5469 157.578 35.7812 158.172 36.25 158.484C36.7188 158.766 37.5781 158.906 38.8281 158.906C39.7656 158.906 40.5938 158.891 41.3125 158.859C42.0625 158.797 42.7344 158.719 43.3281 158.625C43.9531 158.5 44.5156 158.344 45.0156 158.156C45.5156 157.969 45.9844 157.75 46.4219 157.5C48.6094 156.25 49.7031 154.188 49.7031 151.312C49.7031 147.938 48.1562 145.656 45.0625 144.469C44.5625 144.281 44.0156 144.125 43.4219 144C42.8594 143.875 42.2031 143.781 41.4531 143.719C40.7344 143.625 39.8906 143.562 38.9219 143.531C37.9531 143.469 36.8281 143.438 35.5469 143.438V156.703ZM36.7656 127.453C35.9531 127.453 35.5469 127.984 35.5469 129.047V141.281H40.7031C43.2344 141.281 45.1719 140.734 46.5156 139.641C47.8906 138.516 48.5781 136.891 48.5781 134.766C48.5781 132.328 47.7812 130.5 46.1875 129.281C44.5938 128.062 42.2344 127.453 39.1094 127.453H36.7656Z" fill="#EDF3FC" stroke-width="0" stroke="#EDF3FC"/>
<path fill-rule="evenodd" clip-rule="evenodd" d="M92.8281 155.203C93.2656 156.203 93.6406 157 93.9531 157.594C94.2969 158.188 94.6406 158.656 94.9844 159C95.3281 159.312 95.7031 159.531 96.1094 159.656C96.5469 159.781 97.0625 159.859 97.6562 159.891V160.875H84.0156V159.891H85.1875C85.5 159.859 85.75 159.828 85.9375 159.797C86.1562 159.734 86.3438 159.688 86.5 159.656C86.6562 159.594 86.8125 159.516 86.9688 159.422C87.2188 159.266 87.4062 159.078 87.5312 158.859C87.6875 158.609 87.7656 158.359 87.7656 158.109C87.7656 157.234 87.4219 156.016 86.7344 154.453L84.4844 149.344H70.5156L68.0312 155.578C67.9062 155.922 67.7969 156.281 67.7031 156.656C67.6406 157 67.6094 157.344 67.6094 157.688C67.6094 158.406 67.8906 158.953 68.4531 159.328C69.0156 159.703 69.9531 159.891 71.2656 159.891V160.875H60.625V159.891C61.2812 159.859 61.8438 159.75 62.3125 159.562C62.7812 159.375 63.25 158.984 63.7188 158.391C64.1875 157.766 64.6875 156.891 65.2188 155.766C65.7812 154.609 66.4844 153.047 67.3281 151.078L78.4375 124.828H79.4688L92.8281 155.203ZM71.4062 147.188H83.7812L77.5938 132.422L71.4062 147.188Z" fill="#EDF3FC" stroke-width="0" stroke="#EDF3FC"/>
<path d="M153.672 126.516C152.578 126.578 151.703 126.688 151.047 126.844C150.422 126.969 149.938 127.203 149.594 127.547C149.25 127.891 149.016 128.359 148.891 128.953C148.797 129.547 148.75 130.328 148.75 131.297V142.266L158.219 133.641C159.719 132.266 160.781 131.156 161.406 130.312C162.062 129.469 162.391 128.75 162.391 128.156C162.391 127.625 162.219 127.234 161.875 126.984C161.562 126.734 160.984 126.578 160.141 126.516H158.734V125.438H172.75V126.516C171.844 126.578 171.078 126.672 170.453 126.797C169.828 126.891 169.234 127.078 168.672 127.359C168.109 127.641 167.516 128.047 166.891 128.578C166.297 129.078 165.547 129.766 164.641 130.641L154.516 140.719L166.938 154.078C168.156 155.391 169.141 156.422 169.891 157.172C170.672 157.922 171.344 158.5 171.906 158.906C172.5 159.312 173.047 159.578 173.547 159.703C174.047 159.797 174.641 159.859 175.328 159.891V160.875H159.062V159.891L160.516 159.797C162.016 159.766 162.766 159.375 162.766 158.625C162.766 158.312 162.594 157.859 162.25 157.266C161.906 156.672 161.422 155.984 160.797 155.203C160.203 154.391 159.469 153.5 158.594 152.531C157.75 151.562 156.812 150.562 155.781 149.531L150.109 143.906L148.75 145.031V155.109C148.75 156.078 148.797 156.859 148.891 157.453C149.016 158.047 149.234 158.516 149.547 158.859C149.891 159.203 150.375 159.453 151 159.609C151.656 159.734 152.5 159.828 153.531 159.891V160.875H138.484V159.891C139.547 159.828 140.391 159.719 141.016 159.562C141.641 159.406 142.109 159.141 142.422 158.766C142.766 158.359 142.984 157.828 143.078 157.172C143.203 156.484 143.266 155.578 143.266 154.453V131.297C143.266 130.359 143.203 129.594 143.078 129C142.984 128.406 142.766 127.938 142.422 127.594C142.078 127.25 141.594 127 140.969 126.844C140.344 126.688 139.516 126.578 138.484 126.516V125.438H153.672V126.516Z" fill="#EDF3FC" stroke-width="0" stroke="#EDF3FC"/>
<path d="M65.9609 42.1562C63.7734 42.2812 62.0234 42.5 60.7109 42.8125C59.4609 43.0625 58.4922 43.5312 57.8047 44.2188C57.1797 44.9062 56.7422 45.8438 56.4922 47.0312C56.3047 48.2188 56.2109 49.7812 56.2109 51.7188V91.2812C56.2109 98.0312 54.6172 103.25 51.4297 106.938C48.3047 110.562 43.8047 112.375 37.9297 112.375C34.8672 112.375 32.3359 111.656 30.3359 110.219C28.3984 108.781 27.4297 106.906 27.4297 104.594C27.4297 103.156 27.9297 101.938 28.9297 100.938C29.9922 99.875 31.2422 99.3438 32.6797 99.3438C35.3672 99.3438 37.2109 101.125 38.2109 104.688C38.6484 106.062 39.0547 107.031 39.4297 107.594C39.8047 108.156 40.3672 108.438 41.1172 108.438C43.8047 108.438 45.1484 106.062 45.1484 101.312V51.7188C45.1484 49.7812 45.0234 48.2188 44.7734 47.0312C44.5859 45.8438 44.1484 44.9062 43.4609 44.2188C42.7734 43.5312 41.7734 43.0625 40.4609 42.8125C39.1484 42.5 37.3984 42.2812 35.2109 42.1562V40H65.9609V42.1562Z" fill="#EDF3FC" stroke-width="0" stroke="#EDF3FC"/>
<path d="M107.586 42.1562C105.398 42.2812 103.648 42.5 102.336 42.8125C101.086 43.0625 100.117 43.5312 99.4297 44.2188C98.8047 44.9062 98.3672 45.8438 98.1172 47.0312C97.9297 48.2188 97.8359 49.7812 97.8359 51.7188V91.2812C97.8359 98.0312 96.2422 103.25 93.0547 106.938C89.9297 110.562 85.4297 112.375 79.5547 112.375C76.4922 112.375 73.9609 111.656 71.9609 110.219C70.0234 108.781 69.0547 106.906 69.0547 104.594C69.0547 103.156 69.5547 101.938 70.5547 100.938C71.6172 99.875 72.8672 99.3438 74.3047 99.3438C76.9922 99.3438 78.8359 101.125 79.8359 104.688C80.2734 106.062 80.6797 107.031 81.0547 107.594C81.4297 108.156 81.9922 108.438 82.7422 108.438C85.4297 108.438 86.7734 106.062 86.7734 101.312V51.7188C86.7734 49.7812 86.6484 48.2188 86.3984 47.0312C86.2109 45.8438 85.7734 44.9062 85.0859 44.2188C84.3984 43.5312 83.3984 43.0625 82.0859 42.8125C80.7734 42.5 79.0234 42.2812 76.8359 42.1562V40H107.586V42.1562Z" fill="#EDF3FC" stroke-width="0" stroke="#EDF3FC"/>
<path fill-rule="evenodd" clip-rule="evenodd" d="M141.43 40C150.742 40 157.742 41.5312 162.43 44.5938C167.117 47.6562 169.461 52.1875 169.461 58.1875C169.461 60.375 169.086 62.4375 168.336 64.375C167.586 66.25 166.523 67.7812 165.148 68.9688C164.461 69.5312 163.805 70.0312 163.18 70.4688C162.555 70.9062 161.836 71.3125 161.023 71.6875C160.273 72 159.367 72.3125 158.305 72.625C157.305 72.9375 156.117 73.2812 154.742 73.6562C156.492 74.0312 157.992 74.4062 159.242 74.7812C160.555 75.1562 161.711 75.5938 162.711 76.0938C163.711 76.5312 164.617 77.0312 165.43 77.5938C166.242 78.1562 167.055 78.8125 167.867 79.5625C171.367 82.6875 173.117 86.7188 173.117 91.6562C173.117 94.6562 172.523 97.3438 171.336 99.7188C170.148 102.094 168.43 104.125 166.18 105.812C163.93 107.438 161.211 108.688 158.023 109.562C154.836 110.438 151.242 110.875 147.242 110.875H111.43V108.906C113.617 108.844 115.367 108.688 116.68 108.438C118.055 108.125 119.117 107.625 119.867 106.938C120.617 106.25 121.117 105.312 121.367 104.125C121.617 102.875 121.742 101.281 121.742 99.3438V51.7188C121.742 49.7188 121.617 48.125 121.367 46.9375C121.18 45.75 120.711 44.8125 119.961 44.125C119.211 43.4375 118.148 42.9688 116.773 42.7188C115.461 42.4688 113.68 42.2812 111.43 42.1562V40H141.43ZM132.523 102.531C132.523 104.281 132.992 105.469 133.93 106.094C134.867 106.656 136.586 106.938 139.086 106.938C140.961 106.938 142.617 106.906 144.055 106.844C145.555 106.719 146.898 106.562 148.086 106.375C149.336 106.125 150.461 105.812 151.461 105.438C152.461 105.062 153.398 104.625 154.273 104.125C158.648 101.625 160.836 97.5 160.836 91.75C160.836 85 157.742 80.4375 151.555 78.0625C150.555 77.6875 149.461 77.375 148.273 77.125C147.148 76.875 145.836 76.6875 144.336 76.5625C142.898 76.375 141.211 76.25 139.273 76.1875C137.336 76.0625 135.086 76 132.523 76V102.531ZM134.961 44.0312C133.336 44.0312 132.523 45.0938 132.523 47.2188V71.6875H142.836C147.898 71.6875 151.773 70.5938 154.461 68.4062C157.211 66.1562 158.586 62.9062 158.586 58.6562C158.586 53.7812 156.992 50.125 153.805 47.6875C150.617 45.25 145.898 44.0312 139.648 44.0312H134.961Z" fill="#EDF3FC" stroke-width="0" stroke="#EDF3FC"/>
</svg>
