<svg width="201" height="201" viewBox="0 0 201 201" fill="none" xmlns="http://www.w3.org/2000/svg">
<path d="M0 0H201V201H0V0Z" fill="#0c2850"/>
<path d="M46.1338 125.916C46.1338 134.213 44.1748 140.628 40.2568 145.16C36.4157 149.616 30.8844 151.844 23.6631 151.844C19.8988 151.844 16.7874 150.96 14.3291 149.193C11.9476 147.426 10.7568 145.122 10.7568 142.279C10.7568 140.512 11.3714 139.014 12.6006 137.785C13.9066 136.479 15.443 135.826 17.21 135.826C20.5133 135.826 22.7796 138.016 24.0088 142.395C24.5465 144.085 25.0459 145.275 25.5068 145.967C25.9678 146.658 26.6592 147.004 27.5811 147.004C30.8844 147.004 32.5361 144.085 32.5361 138.246V77.2871C32.5361 74.9056 32.3825 72.985 32.0752 71.5254C31.8447 70.0658 31.307 68.9134 30.4619 68.0684C29.6169 67.2233 28.3877 66.6471 26.7744 66.3398C25.1611 65.9557 23.0101 65.6868 20.3213 65.5332V62.8828H58.1182V65.5332C55.4294 65.6868 53.2783 65.9557 51.665 66.3398C50.1286 66.6471 48.9378 67.2233 48.0928 68.0684C47.3245 68.9134 46.7868 70.0658 46.4795 71.5254C46.249 72.985 46.1338 74.9056 46.1338 77.2871V125.916Z" fill="#f3f3f3"/>
<path d="M97.2979 125.916C97.2979 134.213 95.3389 140.628 91.4209 145.16C87.5798 149.616 82.0485 151.844 74.8271 151.844C71.0628 151.844 67.9515 150.96 65.4932 149.193C63.1117 147.426 61.9209 145.122 61.9209 142.279C61.9209 140.512 62.5355 139.014 63.7646 137.785C65.0706 136.479 66.6071 135.826 68.374 135.826C71.6774 135.826 73.9437 138.016 75.1729 142.395C75.7106 144.085 76.21 145.275 76.6709 145.967C77.1318 146.658 77.8232 147.004 78.7451 147.004C82.0485 147.004 83.7002 144.085 83.7002 138.246V77.2871C83.7002 74.9056 83.5465 72.985 83.2393 71.5254C83.0088 70.0658 82.471 68.9134 81.626 68.0684C80.7809 67.2233 79.5518 66.6471 77.9385 66.3398C76.3252 65.9557 74.1742 65.6868 71.4854 65.5332V62.8828H109.282V65.5332C106.593 65.6868 104.442 65.9557 102.829 66.3398C101.293 66.6471 100.102 67.2233 99.2568 68.0684C98.4886 68.9134 97.9508 70.0658 97.6436 71.5254C97.4131 72.985 97.2979 74.9056 97.2979 77.2871V125.916Z" fill="#f3f3f3"/>
<path d="M150.882 62.8828C162.328 62.8828 170.933 64.765 176.694 68.5293C182.456 72.2936 185.337 77.8633 185.337 85.2383C185.337 87.9271 184.876 90.4622 183.954 92.8438C183.032 95.1484 181.726 97.0306 180.036 98.4902C179.191 99.1816 178.384 99.7962 177.616 100.334C176.848 100.872 175.965 101.371 174.966 101.832C174.044 102.216 172.93 102.6 171.624 102.984C170.395 103.368 168.935 103.791 167.245 104.252C169.396 104.713 171.24 105.174 172.776 105.635C174.39 106.096 175.811 106.633 177.04 107.248C178.269 107.786 179.383 108.4 180.382 109.092C181.381 109.783 182.379 110.59 183.378 111.512C187.68 115.353 189.831 120.308 189.831 126.377C189.831 130.064 189.101 133.368 187.642 136.287C186.182 139.206 184.069 141.703 181.304 143.777C178.538 145.775 175.196 147.311 171.278 148.387C167.36 149.462 162.943 150 158.026 150H114.007V147.58C116.696 147.503 118.847 147.311 120.46 147.004C122.15 146.62 123.456 146.005 124.378 145.16C125.3 144.315 125.914 143.163 126.222 141.703C126.529 140.167 126.683 138.208 126.683 135.826V77.2871C126.683 74.8288 126.529 72.8698 126.222 71.4102C125.991 69.9505 125.415 68.7982 124.493 67.9531C123.571 67.1081 122.265 66.5319 120.575 66.2246C118.962 65.9173 116.772 65.6868 114.007 65.5332V62.8828H150.882ZM139.935 139.744C139.935 141.895 140.511 143.355 141.663 144.123C142.815 144.814 144.928 145.16 148.001 145.16C150.306 145.16 152.341 145.122 154.108 145.045C155.952 144.891 157.604 144.699 159.063 144.469C160.6 144.161 161.983 143.777 163.212 143.316C164.441 142.855 165.593 142.318 166.669 141.703C172.047 138.63 174.735 133.56 174.735 126.492C174.735 118.195 170.933 112.587 163.327 109.668C162.098 109.207 160.754 108.823 159.294 108.516C157.911 108.208 156.298 107.978 154.454 107.824C152.687 107.594 150.613 107.44 148.231 107.363C145.85 107.21 143.084 107.133 139.935 107.133V139.744ZM152.61 101.832C158.833 101.832 163.596 100.488 166.899 97.7988C170.28 95.0332 171.97 91.0384 171.97 85.8145C171.97 79.8223 170.011 75.3281 166.093 72.332C162.175 69.3359 156.375 67.8379 148.692 67.8379H142.931C140.933 67.8379 139.935 69.1439 139.935 71.7559V101.832H152.61Z" fill="#f3f3f3"/>
</svg>
